<?xml version="1.0" encoding="UTF-8" standalone="no"?>
<svg width="101px" height="33px" viewBox="0 0 101 33" version="1.1" xmlns="http://www.w3.org/2000/svg" xmlns:xlink="http://www.w3.org/1999/xlink">
    <!-- Generator: Sketch 42 (36781) - http://www.bohemiancoding.com/sketch -->
    <title>Logo</title>
    <desc>Created with Sketch.</desc>
    <defs></defs>
    <g id="Form" stroke="none" stroke-width="1" fill="none" fill-rule="evenodd">
        <g id="Desktop-HD" transform="translate(-1110.000000, -251.000000)" fill="#36355B">
            <g id="App" transform="translate(169.000000, 150.000000)">
                <g id="Header" transform="translate(741.000000, 99.000000)">
                    <g id="Logo" transform="translate(200.000000, 2.000000)">
                        <path d="M74.7193878,7.51384615 L65.3408163,7.51384615 L65.3408163,31.6292308 L69.4632653,31.6292308 L69.4632653,26.4 L74.7193878,26.4 C78.2234694,26.4 81.1091837,23.5569231 81.1091837,20.1046154 L81.1091837,13.8092308 C81.1091837,10.3569231 78.275,7.51384615 74.7193878,7.51384615 L74.7193878,7.51384615 L74.7193878,7.51384615 Z M76.9867347,20.1046154 C76.9867347,21.2723077 76.0076531,22.1861538 74.8739796,22.1861538 L69.5663265,22.1861538 L69.5663265,11.7276923 L74.8739796,11.7276923 C76.0591837,11.7276923 76.9867347,12.6923077 76.9867347,13.8092308 L76.9867347,20.1046154 L76.9867347,20.1046154 L76.9867347,20.1046154 Z" id="Shape"></path>
                        <path d="M94.5071429,7.51384615 L85.1285714,7.51384615 L85.1285714,31.6292308 L89.2510204,31.6292308 L89.2510204,26.4 L94.4556122,26.4 C97.9596939,26.4 100.845408,23.5569231 100.845408,20.1046154 L100.845408,13.8092308 C100.896939,10.3569231 98.0627551,7.51384615 94.5071429,7.51384615 L94.5071429,7.51384615 L94.5071429,7.51384615 Z M96.7744898,20.1046154 C96.7744898,21.2723077 95.7954082,22.1861538 94.6617347,22.1861538 L89.3540816,22.1861538 L89.3540816,11.7276923 L94.6617347,11.7276923 C95.8469388,11.7276923 96.7744898,12.6923077 96.7744898,13.8092308 L96.7744898,20.1046154 L96.7744898,20.1046154 L96.7744898,20.1046154 Z" id="Shape"></path>
                        <rect id="Rectangle-path" x="6.59591837" y="0.203076923" width="4.12244898" height="4.21384615"></rect>
                        <path d="M55.0862245,7.51384615 L35.9168367,7.51384615 L35.9168367,26.4 L40.1938776,26.4 L40.1938776,11.7276923 L46.5836735,11.7276923 L46.5836735,26.4 L50.8607143,26.4 L50.8607143,11.7276923 L55.1377551,11.7276923 C56.3229592,11.7276923 57.2505102,12.6923077 57.2505102,13.8092308 L57.2505102,26.4 L61.527551,26.4 L61.527551,13.8092308 C61.4760204,10.3569231 58.5903061,7.51384615 55.0862245,7.51384615 L55.0862245,7.51384615 L55.0862245,7.51384615 Z" id="Shape"></path>
                        <path d="M6.59591837,26.4 C6.59591837,27.5676923 5.66836735,28.4815385 4.48316327,28.4815385 L0.103061224,28.4815385 L2.21581633,32.6953846 L4.53469388,32.6953846 C7.93571429,32.6953846 10.7183673,29.9538462 10.7183673,26.6030769 L10.7183673,7.51384615 L6.59591837,7.51384615 L6.59591837,26.4 L6.59591837,26.4 L6.59591837,26.4 Z" id="Shape"></path>
                        <path d="M26.4867347,7.51384615 L15.0984694,7.51384615 L17.1596939,11.5753846 L25.4045918,11.5753846 C26.5897959,11.5753846 27.5173469,12.4892308 27.5173469,13.6569231 L27.5173469,14.9261538 L19.4785714,14.9261538 C16.2836735,14.9261538 13.7071429,17.4646154 13.7071429,20.6123077 L13.7071429,20.6123077 C13.7071429,23.76 16.2836735,26.2984615 19.4785714,26.2984615 L31.7428571,26.2984615 L31.7428571,12.7938462 C31.7943878,9.9 29.4239796,7.51384615 26.4867347,7.51384615 L26.4867347,7.51384615 L26.4867347,7.51384615 Z M27.5173469,22.2876923 L19.6846939,22.2876923 C18.7571429,22.2876923 17.9841837,21.5261538 17.9841837,20.6123077 L17.9841837,20.6123077 C17.9841837,19.6984615 18.7571429,18.9369231 19.6846939,18.9369231 L27.5688776,18.9369231 L27.5688776,22.2876923 L27.5173469,22.2876923 L27.5173469,22.2876923 Z" id="Shape"></path>
                    </g>
                </g>
            </g>
        </g>
    </g>
</svg>